<svg xmlns="http://www.w3.org/2000/svg" width="48" height="48" viewBox="0 0 48 48">
  <defs>
    <linearGradient id="bg" x1="0" y1="0" x2="48" y2="48" gradientUnits="userSpaceOnUse">
      <stop offset="0%" stop-color="#0d1420"/>
      <stop offset="100%" stop-color="#050810"/>
    </linearGradient>
    <radialGradient id="glowA" cx="50%" cy="50%" r="50%">
      <stop offset="0%" stop-color="#22d3ee" stop-opacity=".9"/>
      <stop offset="100%" stop-color="#22d3ee" stop-opacity="0"/>
    </radialGradient>
    <radialGradient id="glowB" cx="50%" cy="50%" r="50%">
      <stop offset="0%" stop-color="#8b5cf6" stop-opacity=".85"/>
      <stop offset="100%" stop-color="#8b5cf6" stop-opacity="0"/>
    </radialGradient>
    <linearGradient id="auroraA" x1="0" y1="0" x2="48" y2="0" gradientUnits="userSpaceOnUse">
      <stop offset="0%" stop-color="#10b981" stop-opacity="0"/>
      <stop offset="35%" stop-color="#34d399" stop-opacity=".9"/>
      <stop offset="70%" stop-color="#67e8f9" stop-opacity=".9"/>
      <stop offset="100%" stop-color="#22d3ee" stop-opacity="0"/>
    </linearGradient>
    <linearGradient id="auroraB" x1="0" y1="0" x2="48" y2="0" gradientUnits="userSpaceOnUse">
      <stop offset="0%" stop-color="#22d3ee" stop-opacity="0"/>
      <stop offset="40%" stop-color="#22d3ee" stop-opacity=".85"/>
      <stop offset="75%" stop-color="#a78bfa" stop-opacity=".85"/>
      <stop offset="100%" stop-color="#8b5cf6" stop-opacity="0"/>
    </linearGradient>
    <linearGradient id="auroraC" x1="0" y1="0" x2="48" y2="0" gradientUnits="userSpaceOnUse">
      <stop offset="0%" stop-color="#8b5cf6" stop-opacity="0"/>
      <stop offset="45%" stop-color="#c4b5fd" stop-opacity=".8"/>
      <stop offset="80%" stop-color="#5eead4" stop-opacity=".8"/>
      <stop offset="100%" stop-color="#5eead4" stop-opacity="0"/>
    </linearGradient>
    <filter id="blurBig" x="-60%" y="-60%" width="220%" height="220%">
      <feGaussianBlur stdDeviation="7"/>
    </filter>
    <filter id="blurSoft" x="-50%" y="-50%" width="200%" height="200%">
      <feGaussianBlur stdDeviation="1.6"/>
    </filter>
    <clipPath id="rounded"><rect x="0" y="0" width="48" height="48" rx="11"/></clipPath>
  </defs>

  <g clip-path="url(#rounded)">
    <rect x="0" y="0" width="48" height="48" fill="url(#bg)"/>

    <ellipse cx="14" cy="12" rx="20" ry="12" fill="url(#glowA)" filter="url(#blurBig)" opacity=".5"/>
    <ellipse cx="34" cy="30" rx="18" ry="13" fill="url(#glowB)" filter="url(#blurBig)" opacity=".5"/>

    <!-- Aurora borealis: layered horizontal curtains, not crossing ribbons -->
    <g filter="url(#blurSoft)">
      <path d="M-4 14 C 6 9, 14 18, 24 13 C 34 8, 40 16, 52 11" fill="none" stroke="url(#auroraA)" stroke-width="7" stroke-linecap="round" opacity=".8"/>
      <path d="M-4 24 C 8 30, 16 18, 24 24 C 32 30, 40 18, 52 23" fill="none" stroke="url(#auroraB)" stroke-width="8" stroke-linecap="round" opacity=".85"/>
      <path d="M-4 35 C 10 30, 18 39, 26 34 C 34 29, 42 37, 52 32" fill="none" stroke="url(#auroraC)" stroke-width="6" stroke-linecap="round" opacity=".75"/>
    </g>

    <path d="M-4 14 C 6 9, 14 18, 24 13 C 34 8, 40 16, 52 11" fill="none" stroke="url(#auroraA)" stroke-width="2.6" stroke-linecap="round"/>
    <path d="M-4 24 C 8 30, 16 18, 24 24 C 32 30, 40 18, 52 23" fill="none" stroke="url(#auroraB)" stroke-width="3.2" stroke-linecap="round"/>
    <path d="M-4 35 C 10 30, 18 39, 26 34 C 34 29, 42 37, 52 32" fill="none" stroke="url(#auroraC)" stroke-width="2.2" stroke-linecap="round"/>

    <circle cx="9" cy="8" r="1" fill="#f4feff" opacity=".8"/>
    <circle cx="39" cy="6" r="1.2" fill="#f4feff" opacity=".7"/>
    <circle cx="41" cy="40" r="1" fill="#f4feff" opacity=".65"/>
  </g>
</svg>
