<svg xmlns="http://www.w3.org/2000/svg" width="48" height="48" viewBox="0 0 48 48">
  <defs>
    <linearGradient id="bg" x1="0" y1="0" x2="48" y2="48" gradientUnits="userSpaceOnUse">
      <stop offset="0%" stop-color="#0d1420"/>
      <stop offset="100%" stop-color="#050810"/>
    </linearGradient>
    <radialGradient id="glowA" cx="50%" cy="50%" r="50%">
      <stop offset="0%" stop-color="#22d3ee" stop-opacity=".9"/>
      <stop offset="100%" stop-color="#22d3ee" stop-opacity="0"/>
    </radialGradient>
    <radialGradient id="glowB" cx="50%" cy="50%" r="50%">
      <stop offset="0%" stop-color="#8b5cf6" stop-opacity=".85"/>
      <stop offset="100%" stop-color="#8b5cf6" stop-opacity="0"/>
    </radialGradient>
    <linearGradient id="ribbon1" x1="0" y1="40" x2="48" y2="4" gradientUnits="userSpaceOnUse">
      <stop offset="0%" stop-color="#10b981"/>
      <stop offset="45%" stop-color="#67e8f9"/>
      <stop offset="100%" stop-color="#c4b5fd"/>
    </linearGradient>
    <linearGradient id="ribbon2" x1="2" y1="6" x2="46" y2="44" gradientUnits="userSpaceOnUse">
      <stop offset="0%" stop-color="#8b5cf6"/>
      <stop offset="55%" stop-color="#22d3ee"/>
      <stop offset="100%" stop-color="#5eead4"/>
    </linearGradient>
    <linearGradient id="sheen" x1="4" y1="30" x2="40" y2="6" gradientUnits="userSpaceOnUse">
      <stop offset="0%" stop-color="#ffffff" stop-opacity="0"/>
      <stop offset="50%" stop-color="#ffffff" stop-opacity=".95"/>
      <stop offset="100%" stop-color="#ffffff" stop-opacity="0"/>
    </linearGradient>
    <filter id="blurBig" x="-60%" y="-60%" width="220%" height="220%">
      <feGaussianBlur stdDeviation="7"/>
    </filter>
    <filter id="blurSoft" x="-50%" y="-50%" width="200%" height="200%">
      <feGaussianBlur stdDeviation="1.8"/>
    </filter>
    <clipPath id="rounded"><rect x="0" y="0" width="48" height="48" rx="11"/></clipPath>
  </defs>

  <g clip-path="url(#rounded)">
    <rect x="0" y="0" width="48" height="48" fill="url(#bg)"/>

    <ellipse cx="14" cy="34" rx="20" ry="14" fill="url(#glowA)" filter="url(#blurBig)" opacity=".55"/>
    <ellipse cx="36" cy="12" rx="18" ry="13" fill="url(#glowB)" filter="url(#blurBig)" opacity=".55"/>

    <g filter="url(#blurSoft)">
      <path d="M-2 38 C 10 34, 18 22, 26 17 C 34 12, 42 9, 50 6" fill="none" stroke="url(#ribbon1)" stroke-width="9" stroke-linecap="round" opacity=".85"/>
      <path d="M-2 8 C 12 14, 20 24, 30 31 C 38 36, 44 39, 50 41" fill="none" stroke="url(#ribbon2)" stroke-width="7" stroke-linecap="round" opacity=".8"/>
    </g>

    <path d="M-2 38 C 10 34, 18 22, 26 17 C 34 12, 42 9, 50 6" fill="none" stroke="url(#ribbon1)" stroke-width="4.2" stroke-linecap="round"/>
    <path d="M-2 8 C 12 14, 20 24, 30 31 C 38 36, 44 39, 50 41" fill="none" stroke="url(#ribbon2)" stroke-width="3.4" stroke-linecap="round"/>

    <path d="M4 30 C 13 27, 19 20, 27 15" fill="none" stroke="url(#sheen)" stroke-width="1.6" stroke-linecap="round" opacity=".9"/>

    <circle cx="27" cy="17" r="1.7" fill="#f4feff"/>
    <circle cx="38" cy="9" r="1.1" fill="#f4feff" opacity=".85"/>
    <circle cx="10" cy="33" r="1" fill="#f4feff" opacity=".7"/>
  </g>
</svg>
